<svg width="77" height="77" viewBox="0 0 77 77" fill="none" xmlns="http://www.w3.org/2000/svg">
<circle cx="38.5" cy="38.5" r="38.5" fill="#5D5FEF"/>
<path d="M52.5365 34.4896V38.5C52.5365 42.2227 51.0576 45.7929 48.4253 48.4253C45.7929 51.0576 42.2227 52.5364 38.5 52.5364M38.5 52.5364C34.7773 52.5364 31.2071 51.0576 28.5747 48.4253C25.9424 45.7929 24.4636 42.2227 24.4636 38.5V34.4896M38.5 52.5364L38.5 60.5573M30.4792 60.5573H46.5209M38.5 16.4427C36.9046 16.4427 35.3745 17.0765 34.2463 18.2046C33.1182 19.3328 32.4844 20.8629 32.4844 22.4583V38.5C32.4844 40.0954 33.1182 41.6255 34.2463 42.7537C35.3745 43.8818 36.9046 44.5156 38.5 44.5156C40.0955 44.5156 41.6256 43.8818 42.7537 42.7537C43.8819 41.6255 44.5156 40.0954 44.5156 38.5V22.4583C44.5156 20.8629 43.8819 19.3328 42.7537 18.2046C41.6256 17.0765 40.0955 16.4427 38.5 16.4427Z" stroke="white" stroke-width="1.5" stroke-linecap="round" stroke-linejoin="round"/>
</svg>
